<?xml version="1.0" standalone="no"?>
<!DOCTYPE svg PUBLIC "-//W3C//DTD SVG 20010904//EN"
 "http://www.w3.org/TR/2001/REC-SVG-20010904/DTD/svg10.dtd">
<svg version="1.0" xmlns="http://www.w3.org/2000/svg"
 width="1024.000000pt" height="1024.000000pt" viewBox="0 0 1024.000000 1024.000000"
 preserveAspectRatio="xMidYMid meet">
<metadata>
Created by potrace 1.16, written by Peter Selinger 2001-2019
</metadata>
<g transform="translate(0.000000,1024.000000) scale(0.100000,-0.100000)"
fill="#000000" stroke="none">
<path d="M2490 10234 c-480 -45 -915 -196 -1288 -445 -585 -392 -1005 -1016
-1142 -1699 -55 -270 -53 -192 -55 -1905 -1 -874 1 -1484 5 -1355 4 162 6 198
8 115 2 -82 5 -115 12 -105 9 13 10 13 10 0 0 -13 2 -13 9 0 6 8 7 18 4 24 -3
5 -1 6 6 2 9 -6 8 -14 -4 -33 -10 -14 -12 -22 -5 -18 8 5 11 3 8 -6 -3 -8 -11
-13 -18 -11 -10 2 -10 -1 -4 -10 12 -15 12 -28 0 -48 -7 -12 -7 -13 5 -2 8 7
14 18 14 25 0 7 9 12 20 12 11 -1 19 -7 17 -14 -1 -7 2 -10 8 -6 6 4 7 12 1
24 -7 13 -6 18 4 18 7 0 11 -6 8 -13 -3 -9 2 -12 16 -9 12 2 19 0 16 -6 -4 -5
-11 -7 -16 -4 -5 4 -12 -7 -15 -24 -4 -17 -10 -28 -15 -25 -5 3 -6 10 -3 16 4
7 2 8 -5 4 -9 -6 -9 -11 0 -22 6 -8 8 -14 4 -14 -4 0 -3 -6 4 -13 7 -9 7 -17
0 -24 -6 -6 -5 -10 6 -10 8 0 13 3 10 5 -3 3 1 12 8 20 8 11 8 14 0 9 -18 -11
-23 6 -7 28 8 10 14 13 14 6 0 -7 5 -9 11 -5 6 3 15 1 19 -6 9 -15 2 -42 -9
-35 -4 2 -8 -3 -8 -11 0 -10 4 -11 11 -4 14 14 29 13 19 -2 -4 -7 -8 -17 -8
-23 0 -5 -5 -10 -12 -10 -6 0 -14 -3 -17 -7 -3 -5 -3 -6 1 -3 3 3 14 -2 23
-10 15 -14 17 -12 16 17 -1 20 4 33 12 34 6 1 17 2 23 3 8 1 7 7 -2 19 -7 9
-1 6 14 -7 15 -14 27 -29 27 -35 0 -6 -5 -4 -10 4 -8 13 -10 12 -10 -3 0 -11
-4 -15 -12 -11 -6 4 -8 3 -4 -4 3 -6 2 -14 -4 -17 -7 -4 -7 -11 -2 -18 5 -7 8
-19 7 -28 -2 -9 3 -16 10 -16 15 0 14 19 -3 39 -12 15 -7 28 10 28 5 0 6 -6 2
-12 -5 -10 -4 -10 6 -1 7 6 19 9 28 6 11 -5 13 -3 7 8 -5 8 -1 7 12 -4 11 -9
22 -15 25 -12 2 3 5 -2 5 -10 0 -8 -4 -12 -9 -9 -4 3 -8 0 -8 -5 0 -6 -4 -11
-9 -11 -6 0 -8 9 -6 20 2 11 0 18 -4 16 -10 -7 -8 -53 3 -63 5 -4 6 -2 2 4 -8
15 10 18 19 3 8 -12 33 -2 37 16 2 8 8 4 15 -12 10 -22 10 -24 -3 -14 -8 7
-14 9 -15 4 0 -5 -2 -19 -5 -31 -4 -24 11 -40 21 -23 4 6 12 7 18 3 18 -11 38
-12 31 -2 -3 5 -11 6 -17 3 -7 -4 -8 -3 -4 1 12 14 37 15 34 2 -1 -7 5 -11 13
-9 10 2 7 -5 -9 -22 -13 -14 -29 -22 -35 -18 -6 4 -14 7 -18 8 -5 1 -9 2 -10
4 -2 1 -11 3 -20 5 -12 2 -15 -2 -11 -13 5 -11 3 -13 -7 -7 -9 6 -11 4 -5 -5
6 -10 11 -10 20 3 7 9 15 14 18 10 4 -3 1 -13 -5 -22 -9 -12 -7 -12 7 1 18 17
20 17 39 0 11 -9 16 -12 13 -6 -4 7 0 15 9 18 8 3 12 2 9 -4 -10 -16 7 -12 29
7 20 17 20 17 6 -1 -14 -18 -13 -19 2 -13 19 7 34 -8 18 -18 -6 -4 -8 -10 -5
-15 3 -5 1 -11 -4 -15 -6 -3 -8 4 -6 16 2 12 1 19 -2 15 -12 -12 -11 -56 1
-48 6 4 14 7 19 8 4 1 8 2 10 4 6 5 38 8 33 3 -3 -3 2 -12 12 -20 9 -8 11 -11
3 -7 -10 5 -13 3 -8 -9 4 -11 1 -15 -13 -12 -11 2 -23 -2 -26 -8 -4 -7 -4 -9
0 -5 5 4 18 3 31 -2 16 -6 29 -4 44 6 17 12 21 12 19 2 -2 -7 2 -12 8 -11 6 1
11 -4 11 -11 0 -7 -6 -13 -13 -13 -7 0 -10 5 -7 10 4 6 1 7 -7 2 -9 -6 -11 -4
-5 5 6 9 4 11 -4 6 -9 -6 -8 -13 6 -28 11 -13 13 -18 4 -16 -7 2 -16 -4 -18
-12 -3 -10 -2 -11 4 -4 4 6 17 8 28 4 13 -5 24 -2 31 8 9 12 13 12 19 2 5 -9
4 -11 -3 -6 -7 4 -12 2 -12 -3 0 -11 15 -15 34 -12 5 1 3 -6 -4 -16 -22 -28
-24 -29 -18 -12 4 9 1 16 -7 16 -8 0 -11 -7 -7 -15 4 -11 1 -13 -8 -7 -9 5
-11 4 -6 -4 4 -6 11 -9 15 -7 4 3 13 1 21 -4 10 -6 23 -2 40 13 14 12 22 18
17 13 -4 -5 0 -20 8 -32 9 -14 11 -25 5 -29 -6 -3 -10 -5 -11 -3 0 2 -2 11 -4
21 -2 11 -6 22 -10 25 -3 4 -3 -8 0 -27 3 -18 2 -30 -3 -27 -5 3 -9 -1 -9 -8
0 -9 9 -12 29 -9 15 2 29 -1 29 -6 5 -37 15 -48 44 -48 22 -1 24 2 13 16 -11
14 -11 14 3 4 9 -7 19 -11 22 -8 4 3 5 2 2 -2 -3 -3 3 -11 12 -18 13 -9 13
-14 3 -20 -8 -5 -11 -4 -7 2 4 6 1 13 -7 16 -10 4 -12 0 -8 -15 3 -14 1 -19
-6 -14 -8 4 -10 2 -6 -8 8 -22 31 -27 45 -10 8 10 15 11 25 3 14 -11 8 -42 -7
-33 -5 3 -9 3 -9 0 0 -2 15 -14 34 -25 22 -14 33 -28 32 -43 -1 -29 27 -31 61
-5 16 11 23 15 16 7 -12 -13 -7 -43 6 -36 4 3 7 -6 7 -19 0 -13 -4 -21 -8 -19
-5 3 -6 8 -4 12 2 4 -2 16 -10 27 -8 10 -14 14 -14 8 0 -7 5 -15 10 -18 8 -5
7 -11 -1 -21 -6 -8 -8 -14 -4 -14 4 0 1 -8 -6 -17 -13 -17 -12 -17 6 -2 11 9
27 15 36 14 15 -3 17 114 18 1484 1 817 4 1540 7 1606 9 213 29 346 79 545
180 717 737 1331 1440 1588 137 50 359 106 490 124 145 19 4148 19 4275 0 534
-82 994 -318 1357 -696 339 -352 535 -748 625 -1261 l23 -130 0 -2000 c0
-1100 -3 -2036 -7 -2081 -42 -447 -234 -915 -516 -1254 -406 -487 -959 -780
-1587 -840 -82 -7 -2738 -23 -3345 -19 -24 0 -42 -3 -38 -6 3 -3 47 -7 97 -7
50 -1 91 -2 91 -3 0 -2 -8 -9 -17 -16 -11 -10 -14 -10 -9 -1 4 6 2 12 -3 12
-6 0 -11 -9 -11 -20 0 -31 1 -35 11 -32 5 1 15 3 22 5 6 1 15 9 19 17 5 12 7
12 7 -2 1 -10 6 -18 12 -18 5 0 7 5 3 12 -4 7 -3 8 4 4 9 -5 9 -13 2 -27 -6
-11 -15 -17 -21 -14 -5 4 -6 12 -3 18 4 7 3 8 -2 4 -5 -5 -9 -12 -9 -15 0 -4
-4 -14 -10 -22 -8 -13 -7 -13 10 0 17 14 17 13 12 -10 -4 -14 -4 -19 -1 -12 3
6 11 9 16 6 7 -5 8 -2 3 7 -8 12 -6 12 8 0 15 -12 21 -9 19 10 -1 3 5 6 12 6
15 0 17 -27 3 -44 -5 -7 -6 -13 -2 -13 4 0 1 -8 -6 -17 -10 -11 -10 -14 -2 -9
8 4 13 2 13 -6 0 -9 3 -9 8 -2 4 6 17 10 29 9 17 -1 20 1 12 11 -7 8 -7 14 1
19 10 6 11 5 14 -17 1 -7 7 -12 12 -11 6 1 11 -4 11 -12 0 -8 -4 -12 -8 -9 -4
2 -9 1 -12 -3 -2 -5 -2 -2 -1 5 5 19 -2 14 -20 -12 -11 -18 -13 -27 -4 -32 6
-4 8 -3 4 4 -3 6 -2 13 4 17 5 3 10 -2 10 -12 0 -14 2 -15 9 -4 7 11 9 11 14
0 4 -11 6 -11 6 0 1 11 5 10 16 -5 17 -23 19 -38 4 -28 -8 5 -8 1 0 -13 6 -11
7 -24 3 -29 -4 -5 1 -2 10 5 9 7 23 9 29 5 8 -5 10 -2 6 8 -8 23 22 16 35 -7
8 -13 8 -16 -2 -10 -8 5 -11 3 -8 -6 3 -8 -2 -23 -11 -34 -14 -17 -14 -18 0
-7 9 6 19 9 23 5 9 -9 36 -13 33 -5 -1 4 3 8 8 9 6 1 8 -6 7 -15 -3 -14 -2
-14 15 -1 16 13 17 13 4 -3 -7 -10 -17 -16 -21 -13 -4 3 -14 -3 -21 -13 -12
-15 -12 -16 2 -4 14 10 18 10 23 -3 3 -9 2 -13 -3 -10 -5 3 -12 2 -15 -3 -2
-4 11 -8 29 -8 30 0 32 2 24 21 -10 19 -9 19 5 2 8 -10 18 -18 22 -17 5 1 10
-4 12 -12 2 -9 0 -8 -7 2 -9 13 -11 12 -11 -3 0 -10 -4 -16 -8 -13 -7 4 -8
-23 -3 -42 1 -1 9 2 19 7 13 7 23 6 32 -2 10 -10 10 -7 1 13 -11 24 -11 24 3
6 9 -11 16 -16 16 -11 0 5 5 4 12 -3 8 -8 8 -15 -2 -27 -15 -18 -34 -20 -24
-2 5 8 2 7 -9 -2 -12 -9 -14 -17 -7 -26 5 -6 7 -15 3 -19 -4 -4 1 -4 11 0 14
5 15 9 4 16 -17 11 31 6 50 -5 7 -5 11 -5 10 0 -2 4 1 9 6 11 12 3 14 -48 2
-55 -5 -3 -6 -1 -2 5 3 6 3 13 -2 16 -4 2 -8 -6 -8 -19 0 -16 4 -21 11 -15 10
8 16 10 36 10 5 0 8 4 5 8 -3 5 1 9 9 9 12 0 12 -4 -2 -20 -17 -19 -17 -20 5
-8 18 9 22 9 20 -1 -2 -7 -12 -17 -22 -23 -11 -5 -21 -16 -22 -23 -1 -7 0 -8
3 -2 3 6 11 7 23 0 13 -7 21 -7 25 0 5 8 11 8 19 1 7 -6 16 -8 19 -4 4 3 7 -3
7 -15 0 -11 -4 -24 -10 -27 -6 -4 -7 1 -4 12 5 15 4 15 -4 3 -14 -18 2 -39 26
-35 9 2 21 4 25 4 5 1 5 7 1 14 -4 6 2 3 14 -7 14 -12 19 -23 13 -30 -5 -6
-10 -15 -11 -21 -1 -5 -4 -12 -7 -15 -4 -3 -3 1 2 9 5 10 4 12 -4 7 -18 -11
-3 -25 21 -21 12 3 28 -1 36 -8 13 -10 14 -9 3 13 -10 21 -10 22 1 9 7 -9 21
-15 31 -13 18 2 18 2 1 -17 -19 -21 -29 -25 -18 -8 5 8 1 8 -13 0 -11 -6 -23
-7 -27 -4 -3 3 -6 4 -6 1 0 -3 8 -12 17 -19 11 -10 14 -10 9 -2 -4 7 -2 13 3
13 6 0 11 -5 11 -11 0 -5 4 -7 10 -4 5 3 10 1 10 -5 0 -7 7 -5 16 4 17 18 28
21 19 6 -8 -13 7 -13 23 0 8 7 9 7 3 -1 -5 -6 -7 -19 -4 -28 4 -12 3 -13 -5
-3 -7 11 -10 10 -16 -3 -3 -9 -6 -18 -6 -19 0 -6 245 -8 1580 -9 1564 -2 1477
-5 1754 58 732 166 1348 623 1738 1290 173 296 288 650 339 1045 20 151 21
5261 1 5420 -65 528 -246 977 -551 1368 -116 148 -309 342 -476 478 -141 115
-387 260 -584 345 -147 63 -401 143 -516 163 -16 3 -70 12 -118 20 -199 35
-289 36 -2877 34 -1416 0 -2591 -3 -2610 -4z"/>
<path d="M3180 8599 c-407 -47 -762 -219 -1045 -503 -200 -201 -344 -447 -433
-736 -26 -85 -54 -256 -63 -385 -9 -129 -9 -3604 0 -3698 2 -25 7 -37 15 -34
7 3 13 -1 13 -9 0 -7 -4 -11 -10 -7 -5 3 -7 -5 -5 -18 1 -13 8 -24 15 -24 18
0 28 -14 28 -41 1 -13 5 -23 10 -22 6 2 9 8 7 13 -1 6 9 -3 23 -18 26 -30 34
-53 13 -41 -9 5 -9 2 1 -9 15 -19 26 -23 15 -5 -5 8 0 9 14 6 15 -4 20 -2 15
5 -4 8 -2 8 9 0 8 -7 18 -10 21 -7 3 4 4 -6 1 -22 -3 -16 -8 -31 -11 -34 -3
-3 -3 6 0 19 4 17 3 21 -5 13 -14 -14 -2 -46 14 -35 21 12 38 12 39 0 0 -7 4
-3 9 8 8 18 9 18 9 2 1 -10 5 -16 10 -13 5 4 8 0 7 -6 -3 -18 -25 -55 -26 -43
0 6 5 16 10 21 7 7 6 11 -3 11 -8 0 -13 -12 -13 -29 0 -25 1 -26 16 -13 20 18
34 20 24 3 -6 -9 -3 -9 9 0 18 15 41 7 33 -13 -2 -7 0 -17 5 -22 6 -6 4 -10
-5 -10 -10 0 -13 8 -9 26 2 14 1 23 -2 19 -4 -3 -7 -12 -9 -20 -1 -7 -4 -18
-8 -23 -4 -7 8 -11 33 -11 32 0 39 3 34 15 -3 10 1 9 11 -4 8 -11 20 -19 26
-17 8 2 8 -1 0 -11 -7 -8 -10 -16 -8 -18 8 -8 -51 -2 -65 6 -12 7 -12 6 -1 -7
7 -9 22 -14 35 -11 18 4 20 3 7 -7 -13 -10 -12 -11 4 -6 10 4 26 1 34 -6 12
-10 14 -10 8 0 -4 6 -2 12 3 12 6 0 14 0 18 0 11 1 13 -33 2 -49 -7 -12 -8
-10 -3 9 3 14 4 23 2 20 -9 -9 -31 -55 -23 -48 5 4 15 2 23 -5 13 -10 14 -9 8
2 -7 10 -3 12 13 6 12 -3 20 -3 19 2 -2 4 2 9 7 11 6 1 10 -6 10 -15 -1 -10 4
-22 10 -26 6 -5 4 -7 -5 -4 -8 2 -14 10 -12 16 1 7 -3 9 -9 6 -8 -5 -8 -10 0
-18 15 -15 14 -30 -1 -21 -6 4 -8 3 -4 -4 3 -6 15 -9 26 -6 11 2 29 6 40 9 24
5 39 -20 22 -37 -8 -8 -10 -5 -8 8 2 10 1 13 -1 6 -3 -7 -10 -9 -16 -6 -8 5
-8 2 1 -7 18 -19 15 -34 -5 -18 -15 13 -15 12 -2 -9 8 -12 15 -18 17 -12 2 6
9 7 14 4 6 -4 8 -3 5 3 -3 5 0 10 8 10 8 0 12 -5 9 -11 -3 -6 1 -3 9 7 14 16
15 16 15 -8 0 -13 -5 -22 -10 -19 -5 3 -4 -3 3 -14 8 -13 10 -25 3 -34 -5 -8
-1 -5 9 5 9 11 17 14 17 8 0 -7 5 -9 11 -6 6 4 8 14 5 24 -5 14 -4 14 7 -1 8
-10 17 -15 20 -11 4 3 9 -2 13 -11 4 -10 2 -22 -4 -28 -8 -8 -10 -4 -6 13 4
22 3 21 -9 -4 -7 -15 -17 -24 -22 -20 -5 5 -3 0 4 -9 14 -19 26 -25 16 -8 -3
6 1 10 10 10 10 0 14 -5 10 -12 -4 -7 0 -5 7 4 13 15 15 15 26 0 10 -15 11
-15 6 -1 -3 10 -1 20 4 23 5 3 9 -2 8 -12 0 -9 4 -16 10 -15 6 1 11 -4 11 -12
0 -8 -4 -12 -9 -9 -4 3 -11 -2 -14 -10 -3 -9 -10 -14 -14 -11 -5 3 -12 0 -16
-6 -4 -7 -3 -9 4 -5 7 4 9 -7 7 -34 -2 -23 2 -43 8 -47 7 -3 9 -3 5 2 -4 4 -2
15 5 23 10 13 9 14 -1 8 -9 -6 -11 -1 -8 19 7 37 10 38 36 17 22 -18 20 -50
-2 -36 -7 4 -8 2 -4 -5 6 -9 11 -9 22 0 17 14 19 -2 2 -21 -7 -8 -3 -6 10 4
14 13 22 15 22 6 0 -7 9 -2 20 11 11 13 20 20 19 14 -4 -31 1 -38 18 -24 16
12 17 12 6 -2 -7 -9 -9 -20 -5 -24 4 -5 2 -5 -5 -2 -6 4 -13 4 -16 0 -2 -5 -3
-3 -1 3 1 6 -2 17 -6 24 -5 8 -7 -3 -6 -28 1 -23 6 -45 10 -49 4 -5 6 -1 4 7
-2 8 3 14 10 13 6 -2 12 3 12 10 0 6 5 4 11 -5 5 -10 15 -18 22 -18 8 0 8 3
-1 9 -11 6 -10 10 4 15 10 4 15 4 11 0 -4 -4 -2 -13 3 -19 7 -9 5 -17 -7 -26
-9 -8 -14 -9 -10 -3 3 6 0 11 -8 11 -9 0 -11 -5 -7 -11 10 -13 9 -27 -1 -43
-4 -6 -3 -14 3 -18 6 -4 8 -11 5 -16 -10 -15 2 -10 16 8 8 10 9 14 2 10 -6 -4
-14 -3 -17 2 -4 5 -2 12 4 16 6 4 8 10 5 15 -3 4 2 11 11 14 10 4 13 2 8 -6
-5 -8 -2 -9 9 -5 17 6 20 -3 20 -56 0 -14 2 -15 14 -6 7 7 16 9 20 6 3 -4 11
0 17 8 9 12 11 10 12 -15 1 -19 -3 -27 -10 -23 -6 4 -6 0 1 -8 9 -11 9 -19 2
-26 -6 -6 -5 -10 5 -10 8 0 12 5 9 10 -4 6 0 8 10 4 10 -4 17 -1 17 5 0 7 7 3
16 -8 14 -18 15 -18 9 6 l-6 25 13 -23 c11 -18 16 -20 27 -10 8 7 6 1 -4 -14
-19 -30 -26 -35 -21 -15 1 6 1 9 -1 4 -3 -4 -8 -5 -12 -3 -4 3 -7 -4 -8 -14
-1 -11 3 -22 8 -25 14 -9 0 -27 -14 -18 -7 3 -3 -3 7 -15 20 -23 36 -31 17 -9
-7 10 -7 17 0 24 8 8 8 13 0 17 -19 12 -12 21 14 21 15 0 25 -6 26 -15 0 -10
3 -8 9 5 8 18 9 17 11 -7 2 -42 3 -46 12 -54 4 -4 7 -2 7 6 0 10 3 10 16 0 8
-8 14 -25 12 -39 -3 -27 16 -36 40 -18 6 5 12 6 12 1 0 -5 4 -3 8 4 6 9 12 5
20 -13 7 -15 8 -24 3 -20 -5 3 -12 1 -16 -5 -4 -6 -12 -7 -18 -3 -7 3 -4 -3 7
-15 21 -24 33 -24 56 -2 12 13 13 13 5 1 -8 -12 -6 -13 7 -8 13 4 15 2 11 -11
-6 -15 -5 -16 13 -2 18 14 18 14 5 -3 -11 -13 -17 -15 -28 -6 -11 10 -12 8 -7
-6 6 -14 4 -16 -7 -10 -11 7 -12 6 -2 -7 7 -8 9 -19 5 -24 -4 -5 3 -1 15 9 16
14 23 15 29 6 5 -8 3 -10 -6 -4 -9 6 -11 4 -5 -5 6 -10 12 -7 26 11 l19 24 -9
-30 c-4 -16 -6 -36 -3 -44 3 -9 0 -11 -9 -6 -8 5 -10 4 -6 0 12 -14 38 -15 30
-2 -4 7 0 7 9 -1 14 -11 18 -10 27 5 6 10 11 14 11 8 1 -5 3 -21 6 -34 4 -21
2 -22 -13 -10 -15 11 -16 11 -6 -1 17 -18 17 -33 1 -24 -10 6 -10 5 -1 -7 8
-10 9 -19 3 -25 -7 -7 -5 -17 6 -30 15 -18 15 -18 5 2 -8 17 -7 25 4 34 8 7
12 17 8 24 -4 7 -1 7 7 -1 9 -8 19 -9 30 -3 13 7 21 5 30 -5 10 -12 8 -13 -9
-10 -15 3 -18 0 -14 -12 5 -11 3 -14 -6 -8 -10 6 -11 3 -2 -13 6 -12 16 -24
23 -28 7 -5 8 -3 3 6 -5 8 -3 11 6 8 7 -2 20 3 29 12 8 9 12 11 8 5 -4 -6 -7
-20 -7 -30 0 -11 -2 -35 -4 -53 -3 -18 -1 -35 4 -38 5 -3 6 -10 3 -16 -4 -7
-2 -8 5 -4 7 5 9 12 3 19 -16 22 -8 42 18 42 14 0 28 7 32 15 4 8 6 -1 4 -20
-1 -20 -5 -41 -9 -47 -4 -6 -3 -15 3 -18 6 -4 10 -3 9 2 -3 20 2 27 11 13 9
-13 10 -13 10 0 0 13 1 13 10 0 8 -13 10 -13 10 2 0 9 4 19 9 22 5 4 7 -4 4
-16 -4 -19 -3 -20 6 -8 9 13 11 12 11 -3 0 -12 4 -16 13 -11 8 5 8 2 -2 -9
-15 -18 -26 -23 -16 -7 3 6 2 10 -3 10 -12 0 -13 -48 -1 -56 5 -3 6 2 3 11 -5
11 -2 14 12 8 11 -4 15 -3 11 4 -4 7 0 10 10 8 10 -2 19 -4 21 -5 1 -2 6 -3
11 -4 17 -2 22 -14 10 -22 -8 -5 -10 -3 -4 7 5 8 4 10 0 6 -14 -13 -14 -34 1
-34 7 0 11 4 8 9 -3 4 0 8 5 8 6 0 11 -4 11 -10 0 -5 5 -10 11 -10 5 0 7 6 3
13 -6 10 -4 10 7 0 7 -7 17 -13 22 -13 4 0 5 6 1 13 -6 9 -5 9 8 0 12 -10 405
-13 1874 -12 1766 0 1865 1 1974 19 266 43 508 142 733 300 119 84 314 279
399 400 127 179 230 408 278 614 41 177 41 195 38 2281 -4 2208 0 2051 -63
2257 -123 396 -364 723 -695 943 -208 139 -405 219 -658 267 l-117 23 -1975 1
c-1086 1 -2009 -2 -2050 -7z m4404 -904 c311 -94 370 -511 98 -691 -233 -155
-553 -12 -592 265 -33 236 139 438 375 440 39 1 92 -6 119 -14z m-2079 -740
c332 -46 608 -149 889 -332 143 -93 226 -162 356 -293 386 -389 594 -867 626
-1435 7 -137 -7 -328 -37 -485 -95 -496 -350 -927 -749 -1264 -327 -276 -723
-441 -1180 -491 -89 -9 -341 -6 -442 6 -887 105 -1622 743 -1847 1604 -56 212
-65 289 -65 550 0 254 7 314 60 528 150 604 570 1125 1133 1405 393 195 825
267 1256 207z"/>
<path d="M5110 6384 c-258 -30 -391 -65 -578 -154 -441 -210 -758 -614 -862
-1100 -28 -129 -38 -383 -21 -516 58 -439 291 -829 646 -1083 273 -195 577
-292 915 -292 256 0 449 43 680 152 402 191 702 541 829 967 95 321 89 640
-17 959 -145 431 -472 779 -892 950 -179 72 -348 109 -545 116 -66 3 -136 3
-155 1z"/>
</g>
</svg>
