<?xml version="1.0" standalone="no"?>
<!DOCTYPE svg PUBLIC "-//W3C//DTD SVG 20010904//EN"
 "http://www.w3.org/TR/2001/REC-SVG-20010904/DTD/svg10.dtd">
<svg version="1.0" xmlns="http://www.w3.org/2000/svg"
 width="300.000000pt" height="160.000000pt" viewBox="0 0 300.000000 160.000000"
 preserveAspectRatio="xMidYMid meet">
<metadata>
Created by potrace 1.16, written by Peter Selinger 2001-2019
</metadata>
<g transform="translate(0.000000,160.000000) scale(0.028436,-0.012500)"
fill="#000000" stroke="none">
<path d="M0 6400 l0 -6400 5275 0 5275 0 0 6400 0 6400 -5275 0 -5275 0 0
-6400z m2700 1439 c342 -26 916 -143 1450 -295 47 -14 101 -29 120 -34 19 -5
69 -19 110 -31 41 -11 103 -28 138 -36 l63 -15 40 28 c111 78 245 159 345 209
385 190 778 205 966 37 92 -84 112 -170 57 -258 -40 -64 -79 -97 -163 -139
-137 -69 -189 -80 -396 -80 -203 0 -228 3 -540 73 -262 58 -255 57 -280 39
-68 -48 -236 -207 -317 -301 -110 -129 -190 -264 -228 -388 -24 -77 -27 -100
-23 -190 5 -122 32 -192 101 -258 90 -88 177 -120 323 -120 120 0 216 25 357
94 199 97 328 177 677 422 245 172 293 204 343 228 59 29 90 31 95 6 1 -9 -32
-52 -75 -96 -43 -44 -105 -116 -138 -158 -33 -43 -80 -104 -105 -136 -99 -127
-361 -528 -350 -535 4 -3 52 4 107 15 108 22 143 25 143 11 0 -5 -44 -19 -97
-31 -212 -49 -194 -41 -234 -101 -34 -50 -80 -129 -167 -289 -20 -36 -55 -98
-79 -138 -24 -41 -43 -75 -43 -77 0 -2 -23 -40 -50 -85 -28 -45 -50 -83 -50
-85 0 -2 -41 -68 -92 -147 -205 -320 -445 -607 -578 -690 -136 -85 -293 -118
-398 -84 -224 75 -326 288 -262 552 23 99 31 117 94 224 82 138 265 312 466
442 218 141 580 297 935 403 181 53 159 36 286 233 154 241 228 346 342 490
71 91 81 110 45 91 -23 -12 -37 -21 -254 -177 -193 -139 -214 -154 -301 -208
-387 -246 -657 -295 -892 -161 -86 49 -138 106 -184 203 -31 68 -32 72 -32
209 0 119 3 150 23 210 66 200 180 359 398 556 63 57 113 108 111 113 -4 12
-14 15 -547 158 -187 50 -502 127 -560 138 -25 4 -112 22 -195 38 -141 29
-219 42 -460 74 -64 8 -202 13 -385 13 -254 -1 -299 -4 -410 -24 -381 -70
-670 -211 -890 -435 -36 -36 -68 -66 -72 -66 -24 0 2 36 75 106 246 236 516
367 892 434 199 36 441 42 745 19z m5831 -334 c-6 -25 -9 -50 -6 -56 4 -5 68
-9 144 -9 155 0 253 -15 382 -59 98 -33 130 -48 219 -106 133 -87 259 -254
295 -390 17 -67 20 -178 5 -253 -25 -133 -125 -318 -237 -439 -110 -119 -288
-245 -388 -275 -140 -41 -355 -50 -457 -18 -34 11 -68 20 -74 20 -6 0 -14 -23
-17 -52 -9 -71 -73 -201 -132 -266 -77 -86 -136 -104 -174 -56 -35 44 -25 122
33 245 19 41 32 76 30 78 -2 3 -37 -18 -77 -46 -165 -115 -325 -203 -469 -257
-110 -41 -213 -49 -271 -21 -37 18 -72 66 -80 112 -9 49 9 139 43 211 17 36
29 67 27 69 -3 2 -17 -1 -33 -8 -132 -50 -364 -64 -474 -28 -73 24 -90 20 -90
-19 0 -63 -58 -193 -119 -267 -76 -91 -151 -119 -190 -69 -37 48 -21 131 54
279 25 48 45 89 45 91 0 15 -39 -7 -130 -72 -408 -289 -549 -360 -642 -321
-110 46 -83 227 71 472 63 100 128 185 141 185 5 0 16 -7 24 -16 17 -17 12
-33 -21 -69 -45 -49 -137 -190 -178 -277 -55 -112 -68 -191 -40 -234 16 -25
21 -26 80 -22 81 5 189 60 395 200 124 85 305 201 369 238 12 6 11 11 -3 31
-36 52 -10 88 55 74 29 -7 50 -32 89 -109 10 -19 34 -37 75 -55 55 -24 71 -26
200 -26 170 0 321 32 378 81 60 52 109 86 141 99 41 17 103 19 140 5 30 -11
52 -51 42 -75 -5 -14 -11 -12 -36 15 -28 30 -34 32 -72 26 -48 -8 -123 -60
-168 -116 -47 -60 -99 -174 -106 -233 -29 -243 292 -173 799 172 127 87 146
109 126 149 -7 15 -14 30 -16 34 -2 3 4 14 13 22 21 21 64 20 91 -3 22 -19 63
-88 63 -107 0 -6 28 -24 63 -40 130 -59 401 -39 562 41 197 98 402 325 488
542 29 74 31 86 31 218 1 131 -1 144 -26 197 -34 73 -86 150 -140 209 -52 56
-187 148 -254 174 -27 10 -53 21 -59 25 -16 12 -174 49 -255 60 -93 12 -280
13 -298 1 -13 -8 -63 -118 -98 -216 -8 -22 -24 -60 -36 -85 -19 -41 -63 -149
-123 -305 -101 -261 -140 -355 -142 -348 -2 5 28 101 67 213 165 483 242 721
237 726 -10 10 -135 -16 -242 -51 -93 -30 -387 -148 -410 -165 -5 -4 -29 -14
-52 -23 -23 -9 -61 -25 -85 -36 -52 -24 -211 -86 -291 -112 -142 -48 -382 -87
-403 -66 -10 9 8 14 136 31 168 23 366 89 650 216 299 134 439 186 610 223
l105 22 25 54 c45 94 93 105 71 16z"/>
<path d="M5406 7744 c-171 -31 -394 -128 -576 -249 -129 -87 -136 -93 -123
-106 6 -6 37 -17 70 -24 32 -7 110 -25 173 -39 293 -68 499 -81 667 -45 271
59 405 204 314 340 -78 116 -288 165 -525 123z"/>
<path d="M4870 5751 c-776 -257 -1240 -595 -1360 -989 -29 -95 -25 -228 10
-317 27 -70 100 -147 174 -185 42 -21 63 -25 140 -25 100 1 148 17 258 87 148
95 386 386 552 676 20 34 52 90 73 125 41 70 97 174 286 527 22 41 50 91 63
111 41 65 28 64 -196 -10z"/>
<path d="M6617 5918 c-55 -64 -108 -161 -137 -247 -38 -114 -4 -145 73 -67 95
96 171 315 123 355 -11 9 -23 1 -59 -41z"/>
<path d="M8287 5921 c-50 -55 -85 -112 -119 -196 -37 -89 -47 -152 -25 -161
53 -20 161 126 202 272 32 116 5 155 -58 85z"/>
</g>
</svg>
